<svg height="10654" width="720" xmlns="http://www.w3.org/2000/svg">
<rect height="10654" fill="#555" width="720"></rect>
<text fill="#7f7" font-family="Courier New" font-size="12" xml:space="preserve">
<tspan x="10" y="26">153 megabytes</tspan>
<tspan x="10" y="42">└─┬ shader-school@1.1.1 </tspan>
<tspan x="10" y="58">  ├─┬ a-big-triangle@0.0.0 </tspan>
<tspan x="10" y="74">  │ ├─┬ gl-buffer@0.1.2 </tspan>
<tspan x="10" y="90">  │ │ └─┬ typedarray-pool@0.1.2 </tspan>
<tspan x="10" y="106">  │ │   ├── bit-twiddle@0.0.2 </tspan>
<tspan x="10" y="122">  │ │   └── dup@0.0.0 </tspan>
<tspan x="10" y="138">  │ └─┬ gl-vao@0.0.3 </tspan>
<tspan x="10" y="154">  │   └── webglew@0.0.0 </tspan>
<tspan x="10" y="170">  ├─┬ apprise@1.0.0 </tspan>
<tspan x="10" y="186">  │ ├── emitter-component@1.1.1 </tspan>
<tspan x="10" y="202">  │ └─┬ once@1.4.0 </tspan>
<tspan x="10" y="218">  │   └── wrappy@1.0.2 </tspan>
<tspan x="10" y="234">  ├─┬ autoprefixer@1.3.1 </tspan>
<tspan x="10" y="250">  │ ├── caniuse-db@1.0.30000649 </tspan>
<tspan x="10" y="266">  │ ├─┬ fs-extra@0.9.1 </tspan>
<tspan x="10" y="282">  │ │ ├── jsonfile@1.1.1 </tspan>
<tspan x="10" y="298">  │ │ ├── ncp@0.5.1 </tspan>
<tspan x="10" y="314">  │ │ └─┬ rimraf@2.6.1 </tspan>
<tspan x="10" y="330">  │ │   └─┬ glob@7.1.1 </tspan>
<tspan x="10" y="346">  │ │     └── fs.realpath@1.0.0 </tspan>
<tspan x="10" y="362">  │ └─┬ postcss@0.3.5 </tspan>
<tspan x="10" y="378">  │   ├── base64-js@0.0.8 </tspan>
<tspan x="10" y="394">  │   └─┬ source-map@0.1.43 </tspan>
<tspan x="10" y="410">  │     └── amdefine@1.0.1 </tspan>
<tspan x="10" y="426">  ├─┬ baboon-image@1.0.1 </tspan>
<tspan x="10" y="442">  │ └─┬ ndpack-image@1.0.4 </tspan>
<tspan x="10" y="458">  │   ├─┬ get-pixels@1.1.3 </tspan>
<tspan x="10" y="474">  │   │ ├── jpeg-js@0.0.3 </tspan>
<tspan x="10" y="490">  │   │ ├── ndarray-pack@1.2.1 </tspan>
<tspan x="10" y="506">  │   │ ├── node-bitmap@0.0.1 </tspan>
<tspan x="10" y="522">  │   │ ├── omggif@1.0.8 </tspan>
<tspan x="10" y="538">  │   │ ├── pngparse@1.1.4 </tspan>
<tspan x="10" y="554">  │   │ └─┬ ppm@0.0.0 </tspan>
<tspan x="10" y="570">  │   │   └── through@2.2.7 </tspan>
<tspan x="10" y="586">  │   ├── pngparse-sync@1.0.2 </tspan>
<tspan x="10" y="602">  │   └─┬ save-pixels@1.0.0 </tspan>
<tspan x="10" y="618">  │     └── pngjs@0.4.0 </tspan>
<tspan x="10" y="634">  ├─┬ beefy@2.1.8 </tspan>
<tspan x="10" y="650">  │ ├── ansicolors@0.3.2 </tspan>
<tspan x="10" y="666">  │ ├─┬ chokidar@1.6.1 </tspan>
<tspan x="10" y="682">  │ │ ├─┬ anymatch@1.3.0 </tspan>
<tspan x="10" y="698">  │ │ │ ├── arrify@1.0.1 </tspan>
<tspan x="10" y="714">  │ │ │ └─┬ micromatch@2.3.11 </tspan>
<tspan x="10" y="730">  │ │ │   ├─┬ arr-diff@2.0.0 </tspan>
<tspan x="10" y="746">  │ │ │   │ └── arr-flatten@1.0.1 </tspan>
<tspan x="10" y="762">  │ │ │   ├── array-unique@0.2.1 </tspan>
<tspan x="10" y="778">  │ │ │   ├─┬ braces@1.8.5 </tspan>
<tspan x="10" y="794">  │ │ │   │ ├─┬ expand-range@1.8.2 </tspan>
<tspan x="10" y="810">  │ │ │   │ │ └─┬ fill-range@2.2.3 </tspan>
<tspan x="10" y="826">  │ │ │   │ │   ├── is-number@2.1.0 </tspan>
<tspan x="10" y="842">  │ │ │   │ │   ├── isobject@2.1.0 </tspan>
<tspan x="10" y="858">  │ │ │   │ │   ├── randomatic@1.1.6 </tspan>
<tspan x="10" y="874">  │ │ │   │ │   └── repeat-string@1.6.1 </tspan>
<tspan x="10" y="890">  │ │ │   │ ├── preserve@0.2.0 </tspan>
<tspan x="10" y="906">  │ │ │   │ └── repeat-element@1.1.2 </tspan>
<tspan x="10" y="922">  │ │ │   ├─┬ expand-brackets@0.1.5 </tspan>
<tspan x="10" y="938">  │ │ │   │ └── is-posix-bracket@0.1.1 </tspan>
<tspan x="10" y="954">  │ │ │   ├── extglob@0.3.2 </tspan>
<tspan x="10" y="970">  │ │ │   ├── filename-regex@2.0.0 </tspan>
<tspan x="10" y="986">  │ │ │   ├── kind-of@3.1.0 </tspan>
<tspan x="10" y="1002">  │ │ │   ├─┬ normalize-path@2.1.1 </tspan>
<tspan x="10" y="1018">  │ │ │   │ └── remove-trailing-separator@1.0.1 </tspan>
<tspan x="10" y="1034">  │ │ │   ├─┬ object.omit@2.0.1 </tspan>
<tspan x="10" y="1050">  │ │ │   │ ├─┬ for-own@0.1.5 </tspan>
<tspan x="10" y="1066">  │ │ │   │ │ └── for-in@1.0.2 </tspan>
<tspan x="10" y="1082">  │ │ │   │ └── is-extendable@0.1.1 </tspan>
<tspan x="10" y="1098">  │ │ │   ├─┬ parse-glob@3.0.4 </tspan>
<tspan x="10" y="1114">  │ │ │   │ ├── glob-base@0.3.0 </tspan>
<tspan x="10" y="1130">  │ │ │   │ └── is-dotfile@1.0.2 </tspan>
<tspan x="10" y="1146">  │ │ │   └─┬ regex-cache@0.4.3 </tspan>
<tspan x="10" y="1162">  │ │ │     ├── is-equal-shallow@0.1.3 </tspan>
<tspan x="10" y="1178">  │ │ │     └── is-primitive@2.0.0 </tspan>
<tspan x="10" y="1194">  │ │ ├── async-each@1.0.1 </tspan>
<tspan x="10" y="1210">  │ │ ├── glob-parent@2.0.0 </tspan>
<tspan x="10" y="1226">  │ │ ├─┬ is-binary-path@1.0.1 </tspan>
<tspan x="10" y="1242">  │ │ │ └── binary-extensions@1.8.0 </tspan>
<tspan x="10" y="1258">  │ │ ├─┬ is-glob@2.0.1 </tspan>
<tspan x="10" y="1274">  │ │ │ └── is-extglob@1.0.0 </tspan>
<tspan x="10" y="1290">  │ │ ├── path-is-absolute@1.0.1 </tspan>
<tspan x="10" y="1306">  │ │ └─┬ readdirp@2.1.0 </tspan>
<tspan x="10" y="1322">  │ │   ├── graceful-fs@4.1.11 </tspan>
<tspan x="10" y="1338">  │ │   ├── minimatch@3.0.3 </tspan>
<tspan x="10" y="1354">  │ │   └── set-immediate-shim@1.0.1 </tspan>
<tspan x="10" y="1370">  │ ├─┬ concat-stream@1.6.0 </tspan>
<tspan x="10" y="1386">  │ │ ├─┬ readable-stream@2.2.7 </tspan>
<tspan x="10" y="1402">  │ │ │ ├── buffer-shims@1.0.0 </tspan>
<tspan x="10" y="1418">  │ │ │ ├── isarray@1.0.0 </tspan>
<tspan x="10" y="1434">  │ │ │ ├── process-nextick-args@1.0.7 </tspan>
<tspan x="10" y="1450">  │ │ │ ├── string_decoder@1.0.0 </tspan>
<tspan x="10" y="1466">  │ │ │ └── util-deprecate@1.0.2 </tspan>
<tspan x="10" y="1482">  │ │ └── typedarray@0.0.6 </tspan>
<tspan x="10" y="1498">  │ ├── find-global-packages@0.0.1 </tspan>
<tspan x="10" y="1514">  │ ├── ignorepatterns@1.1.0 </tspan>
<tspan x="10" y="1530">  │ ├── leftpad@0.0.0 </tspan>
<tspan x="10" y="1546">  │ ├── mime@1.2.11 </tspan>
<tspan x="10" y="1562">  │ ├── minimist@0.0.8 </tspan>
<tspan x="10" y="1578">  │ ├── open@0.0.3 </tspan>
<tspan x="10" y="1594">  │ ├─┬ portfinder@0.2.1 </tspan>
<tspan x="10" y="1610">  │ │ └── mkdirp@0.0.7 </tspan>
<tspan x="10" y="1626">  │ ├── pretty-bytes@0.1.2 </tspan>
<tspan x="10" y="1642">  │ ├─┬ readable-stream@1.1.14 </tspan>
<tspan x="10" y="1658">  │ │ ├── core-util-is@1.0.2 </tspan>
<tspan x="10" y="1674">  │ │ ├── isarray@0.0.1 </tspan>
<tspan x="10" y="1690">  │ │ └── string_decoder@0.10.31 </tspan>
<tspan x="10" y="1706">  │ ├── resolve@0.6.3 </tspan>
<tspan x="10" y="1722">  │ ├── response-stream@0.0.0 </tspan>
<tspan x="10" y="1738">  │ ├─┬ script-injector@1.0.0 </tspan>
<tspan x="10" y="1754">  │ │ ├─┬ through2@0.6.5 </tspan>
<tspan x="10" y="1770">  │ │ │ ├─┬ readable-stream@1.0.34 </tspan>
<tspan x="10" y="1786">  │ │ │ │ ├── isarray@0.0.1 </tspan>
<tspan x="10" y="1802">  │ │ │ │ └── string_decoder@0.10.31 </tspan>
<tspan x="10" y="1818">  │ │ │ └── xtend@4.0.1 </tspan>
<tspan x="10" y="1834">  │ │ └─┬ trumpet@1.7.2 </tspan>
<tspan x="10" y="1850">  │ │   ├─┬ html-select@2.3.24 </tspan>
<tspan x="10" y="1866">  │ │   │ ├─┬ readable-stream@1.1.14 </tspan>
<tspan x="10" y="1882">  │ │   │ │ ├── isarray@0.0.1 </tspan>
<tspan x="10" y="1898">  │ │   │ │ └── string_decoder@0.10.31 </tspan>
<tspan x="10" y="1914">  │ │   │ ├── split@0.3.3 </tspan>
<tspan x="10" y="1930">  │ │   │ └─┬ through2@1.1.1 </tspan>
<tspan x="10" y="1946">  │ │   │   └── xtend@4.0.1 </tspan>
<tspan x="10" y="1962">  │ │   ├─┬ html-tokenize@1.2.5 </tspan>
<tspan x="10" y="1978">  │ │   │ ├─┬ readable-stream@1.0.34 </tspan>
<tspan x="10" y="1994">  │ │   │ │ ├── isarray@0.0.1 </tspan>
<tspan x="10" y="2010">  │ │   │ │ └── string_decoder@0.10.31 </tspan>
<tspan x="10" y="2026">  │ │   │ └── through2@0.4.2 </tspan>
<tspan x="10" y="2042">  │ │   ├─┬ readable-stream@1.1.14 </tspan>
<tspan x="10" y="2058">  │ │   │ ├── isarray@0.0.1 </tspan>
<tspan x="10" y="2074">  │ │   │ └── string_decoder@0.10.31 </tspan>
<tspan x="10" y="2090">  │ │   └─┬ through2@1.1.1 </tspan>
<tspan x="10" y="2106">  │ │     └── xtend@4.0.1 </tspan>
<tspan x="10" y="2122">  │ ├── through@2.2.7 </tspan>
<tspan x="10" y="2138">  │ ├── which@1.0.9 </tspan>
<tspan x="10" y="2154">  │ └─┬ xtend@2.1.2 </tspan>
<tspan x="10" y="2170">  │   └── object-keys@0.4.0 </tspan>
<tspan x="10" y="2186">  ├─┬ brfs@1.4.3 </tspan>
<tspan x="10" y="2202">  │ ├─┬ quote-stream@1.0.2 </tspan>
<tspan x="10" y="2218">  │ │ ├── buffer-equal@0.0.1 </tspan>
<tspan x="10" y="2234">  │ │ ├── minimist@1.2.0 </tspan>
<tspan x="10" y="2250">  │ │ └─┬ through2@2.0.3 </tspan>
<tspan x="10" y="2266">  │ │   └── xtend@4.0.1 </tspan>
<tspan x="10" y="2282">  │ ├─┬ resolve@1.3.2 </tspan>
<tspan x="10" y="2298">  │ │ └── path-parse@1.0.5 </tspan>
<tspan x="10" y="2314">  │ ├─┬ static-module@1.3.1 </tspan>
<tspan x="10" y="2330">  │ │ ├─┬ concat-stream@1.4.10 </tspan>
<tspan x="10" y="2346">  │ │ │ └── readable-stream@1.1.14 </tspan>
<tspan x="10" y="2362">  │ │ ├─┬ escodegen@1.3.3 </tspan>
<tspan x="10" y="2378">  │ │ │ ├── estraverse@1.5.1 </tspan>
<tspan x="10" y="2394">  │ │ │ └── esutils@1.0.0 </tspan>
<tspan x="10" y="2410">  │ │ ├─┬ falafel@1.2.0 </tspan>
<tspan x="10" y="2426">  │ │ │ ├── acorn@1.2.2 </tspan>
<tspan x="10" y="2442">  │ │ │ ├── foreach@2.0.5 </tspan>
<tspan x="10" y="2458">  │ │ │ ├── isarray@0.0.1 </tspan>
<tspan x="10" y="2474">  │ │ │ └── object-keys@1.0.11 </tspan>
<tspan x="10" y="2490">  │ │ ├─┬ has@1.0.1 </tspan>
<tspan x="10" y="2506">  │ │ │ └── function-bind@1.1.0 </tspan>
<tspan x="10" y="2522">  │ │ ├── object-inspect@0.4.0 </tspan>
<tspan x="10" y="2538">  │ │ ├── quote-stream@0.0.0 </tspan>
<tspan x="10" y="2554">  │ │ ├─┬ readable-stream@1.0.34 </tspan>
<tspan x="10" y="2570">  │ │ │ ├── isarray@0.0.1 </tspan>
<tspan x="10" y="2586">  │ │ │ └── string_decoder@0.10.31 </tspan>
<tspan x="10" y="2602">  │ │ └── through2@0.4.2 </tspan>
<tspan x="10" y="2618">  │ └─┬ through2@2.0.3 </tspan>
<tspan x="10" y="2634">  │   └── xtend@4.0.1 </tspan>
<tspan x="10" y="2650">  ├─┬ browser-menu@0.1.0 </tspan>
<tspan x="10" y="2666">  │ ├── events@1.1.1 </tspan>
<tspan x="10" y="2682">  │ ├─┬ terminal-menu@0.2.0 </tspan>
<tspan x="10" y="2698">  │ │ ├── charm@0.1.2 </tspan>
<tspan x="10" y="2714">  │ │ └── resumer@0.0.0 </tspan>
<tspan x="10" y="2730">  │ └── vkey@0.0.3 </tspan>
<tspan x="10" y="2746">  ├─┬ browserify@6.3.4 </tspan>
<tspan x="10" y="2762">  │ ├── assert@1.1.2 </tspan>
<tspan x="10" y="2778">  │ ├─┬ browser-pack@3.2.0 </tspan>
<tspan x="10" y="2794">  │ │ ├─┬ combine-source-map@0.3.0 </tspan>
<tspan x="10" y="2810">  │ │ │ └─┬ inline-source-map@0.3.1 </tspan>
<tspan x="10" y="2826">  │ │ │   └── source-map@0.3.0 </tspan>
<tspan x="10" y="2842">  │ │ ├─┬ concat-stream@1.4.10 </tspan>
<tspan x="10" y="2858">  │ │ │ └─┬ readable-stream@1.1.14 </tspan>
<tspan x="10" y="2874">  │ │ │   ├── isarray@0.0.1 </tspan>
<tspan x="10" y="2890">  │ │ │   └── string_decoder@0.10.31 </tspan>
<tspan x="10" y="2906">  │ │ └─┬ through2@0.5.1 </tspan>
<tspan x="10" y="2922">  │ │   ├── readable-stream@1.0.34 </tspan>
<tspan x="10" y="2938">  │ │   └── xtend@3.0.0 </tspan>
<tspan x="10" y="2954">  │ ├─┬ browser-resolve@1.11.2 </tspan>
<tspan x="10" y="2970">  │ │ └── resolve@1.1.7 </tspan>
<tspan x="10" y="2986">  │ ├─┬ browserify-zlib@0.1.4 </tspan>
<tspan x="10" y="3002">  │ │ └── pako@0.2.9 </tspan>
<tspan x="10" y="3018">  │ ├─┬ buffer@2.8.2 </tspan>
<tspan x="10" y="3034">  │ │ ├── base64-js@0.0.7 </tspan>
<tspan x="10" y="3050">  │ │ ├── ieee754@1.1.8 </tspan>
<tspan x="10" y="3066">  │ │ └── is-array@1.0.1 </tspan>
<tspan x="10" y="3082">  │ ├── builtins@0.0.7 </tspan>
<tspan x="10" y="3098">  │ ├── commondir@0.0.1 </tspan>
<tspan x="10" y="3114">  │ ├── concat-stream@1.4.10 </tspan>
<tspan x="10" y="3130">  │ ├─┬ console-browserify@1.1.0 </tspan>
<tspan x="10" y="3146">  │ │ └── date-now@0.1.4 </tspan>
<tspan x="10" y="3162">  │ ├── constants-browserify@0.0.1 </tspan>
<tspan x="10" y="3178">  │ ├─┬ crypto-browserify@3.11.0 </tspan>
<tspan x="10" y="3194">  │ │ ├─┬ browserify-cipher@1.0.0 </tspan>
<tspan x="10" y="3210">  │ │ │ ├─┬ browserify-aes@1.0.6 </tspan>
<tspan x="10" y="3226">  │ │ │ │ └── buffer-xor@1.0.3 </tspan>
<tspan x="10" y="3242">  │ │ │ ├─┬ browserify-des@1.0.0 </tspan>
<tspan x="10" y="3258">  │ │ │ │ └── des.js@1.0.0 </tspan>
<tspan x="10" y="3274">  │ │ │ └── evp_bytestokey@1.0.0 </tspan>
<tspan x="10" y="3290">  │ │ ├─┬ browserify-sign@4.0.4 </tspan>
<tspan x="10" y="3306">  │ │ │ ├── bn.js@4.11.6 </tspan>
<tspan x="10" y="3322">  │ │ │ ├── browserify-rsa@4.0.1 </tspan>
<tspan x="10" y="3338">  │ │ │ ├─┬ elliptic@6.4.0 </tspan>
<tspan x="10" y="3354">  │ │ │ │ ├── brorand@1.1.0 </tspan>
<tspan x="10" y="3370">  │ │ │ │ ├── hash.js@1.0.3 </tspan>
<tspan x="10" y="3386">  │ │ │ │ ├── hmac-drbg@1.0.0 </tspan>
<tspan x="10" y="3402">  │ │ │ │ ├── minimalistic-assert@1.0.0 </tspan>
<tspan x="10" y="3418">  │ │ │ │ └── minimalistic-crypto-utils@1.0.1 </tspan>
<tspan x="10" y="3434">  │ │ │ └─┬ parse-asn1@5.1.0 </tspan>
<tspan x="10" y="3450">  │ │ │   └── asn1.js@4.9.1 </tspan>
<tspan x="10" y="3466">  │ │ ├── create-ecdh@4.0.0 </tspan>
<tspan x="10" y="3482">  │ │ ├─┬ create-hash@1.1.2 </tspan>
<tspan x="10" y="3498">  │ │ │ ├── cipher-base@1.0.3 </tspan>
<tspan x="10" y="3514">  │ │ │ └── ripemd160@1.0.1 </tspan>
<tspan x="10" y="3530">  │ │ ├── create-hmac@1.1.4 </tspan>
<tspan x="10" y="3546">  │ │ ├─┬ diffie-hellman@5.0.2 </tspan>
<tspan x="10" y="3562">  │ │ │ └── miller-rabin@4.0.0 </tspan>
<tspan x="10" y="3578">  │ │ ├── pbkdf2@3.0.9 </tspan>
<tspan x="10" y="3594">  │ │ ├── public-encrypt@4.0.0 </tspan>
<tspan x="10" y="3610">  │ │ └── randombytes@2.0.3 </tspan>
<tspan x="10" y="3626">  │ ├── deep-equal@0.2.2 </tspan>
<tspan x="10" y="3642">  │ ├── defined@0.0.0 </tspan>
<tspan x="10" y="3658">  │ ├─┬ deps-sort@1.3.9 </tspan>
<tspan x="10" y="3674">  │ │ ├─┬ JSONStream@1.3.1 </tspan>
<tspan x="10" y="3690">  │ │ │ └── jsonparse@1.3.0 </tspan>
<tspan x="10" y="3706">  │ │ └─┬ through2@1.1.1 </tspan>
<tspan x="10" y="3722">  │ │   ├─┬ readable-stream@1.1.14 </tspan>
<tspan x="10" y="3738">  │ │   │ ├── isarray@0.0.1 </tspan>
<tspan x="10" y="3754">  │ │   │ └── string_decoder@0.10.31 </tspan>
<tspan x="10" y="3770">  │ │   └── xtend@4.0.1 </tspan>
<tspan x="10" y="3786">  │ ├── domain-browser@1.1.7 </tspan>
<tspan x="10" y="3802">  │ ├─┬ duplexer2@0.0.2 </tspan>
<tspan x="10" y="3818">  │ │ └─┬ readable-stream@1.1.14 </tspan>
<tspan x="10" y="3834">  │ │   ├── isarray@0.0.1 </tspan>
<tspan x="10" y="3850">  │ │   └── string_decoder@0.10.31 </tspan>
<tspan x="10" y="3866">  │ ├── events@1.0.2 </tspan>
<tspan x="10" y="3882">  │ ├─┬ glob@4.5.3 </tspan>
<tspan x="10" y="3898">  │ │ ├── inflight@1.0.6 </tspan>
<tspan x="10" y="3914">  │ │ └─┬ minimatch@2.0.10 </tspan>
<tspan x="10" y="3930">  │ │   └─┬ brace-expansion@1.1.7 </tspan>
<tspan x="10" y="3946">  │ │     ├── balanced-match@0.4.2 </tspan>
<tspan x="10" y="3962">  │ │     └── concat-map@0.0.1 </tspan>
<tspan x="10" y="3978">  │ ├─┬ http-browserify@1.7.0 </tspan>
<tspan x="10" y="3994">  │ │ └── Base64@0.2.1 </tspan>
<tspan x="10" y="4010">  │ ├── https-browserify@0.0.1 </tspan>
<tspan x="10" y="4026">  │ ├── inherits@2.0.3 </tspan>
<tspan x="10" y="4042">  │ ├─┬ insert-module-globals@6.6.3 </tspan>
<tspan x="10" y="4058">  │ │ ├─┬ combine-source-map@0.6.1 </tspan>
<tspan x="10" y="4074">  │ │ │ ├── convert-source-map@1.1.3 </tspan>
<tspan x="10" y="4090">  │ │ │ ├── inline-source-map@0.5.0 </tspan>
<tspan x="10" y="4106">  │ │ │ ├── lodash.memoize@3.0.4 </tspan>
<tspan x="10" y="4122">  │ │ │ └── source-map@0.4.4 </tspan>
<tspan x="10" y="4138">  │ │ ├─┬ concat-stream@1.4.10 </tspan>
<tspan x="10" y="4154">  │ │ │ └─┬ readable-stream@1.1.14 </tspan>
<tspan x="10" y="4170">  │ │ │   ├── isarray@0.0.1 </tspan>
<tspan x="10" y="4186">  │ │ │   └── string_decoder@0.10.31 </tspan>
<tspan x="10" y="4202">  │ │ ├─┬ JSONStream@1.3.1 </tspan>
<tspan x="10" y="4218">  │ │ │ └── jsonparse@1.3.0 </tspan>
<tspan x="10" y="4234">  │ │ ├─┬ lexical-scope@1.2.0 </tspan>
<tspan x="10" y="4250">  │ │ │ └─┬ astw@2.2.0 </tspan>
<tspan x="10" y="4266">  │ │ │   └── acorn@4.0.11 </tspan>
<tspan x="10" y="4282">  │ │ ├── process@0.11.9 </tspan>
<tspan x="10" y="4298">  │ │ ├── through2@1.1.1 </tspan>
<tspan x="10" y="4314">  │ │ └── xtend@4.0.1 </tspan>
<tspan x="10" y="4330">  │ ├── isarray@0.0.1 </tspan>
<tspan x="10" y="4346">  │ ├─┬ JSONStream@0.8.4 </tspan>
<tspan x="10" y="4362">  │ │ └── jsonparse@0.0.5 </tspan>
<tspan x="10" y="4378">  │ ├─┬ labeled-stream-splicer@1.0.2 </tspan>
<tspan x="10" y="4394">  │ │ ├── isarray@0.0.1 </tspan>
<tspan x="10" y="4410">  │ │ └─┬ stream-splicer@1.3.2 </tspan>
<tspan x="10" y="4426">  │ │   ├── isarray@0.0.1 </tspan>
<tspan x="10" y="4442">  │ │   ├─┬ readable-stream@1.1.14 </tspan>
<tspan x="10" y="4458">  │ │   │ └── string_decoder@0.10.31 </tspan>
<tspan x="10" y="4474">  │ │   ├─┬ readable-wrap@1.0.0 </tspan>
<tspan x="10" y="4490">  │ │   │ └─┬ readable-stream@1.1.14 </tspan>
<tspan x="10" y="4506">  │ │   │   ├── isarray@0.0.1 </tspan>
<tspan x="10" y="4522">  │ │   │   └── string_decoder@0.10.31 </tspan>
<tspan x="10" y="4538">  │ │   └─┬ through2@1.1.1 </tspan>
<tspan x="10" y="4554">  │ │     └── xtend@4.0.1 </tspan>
<tspan x="10" y="4570">  │ ├─┬ module-deps@3.9.1 </tspan>
<tspan x="10" y="4586">  │ │ ├── concat-stream@1.4.10 </tspan>
<tspan x="10" y="4602">  │ │ ├── defined@1.0.0 </tspan>
<tspan x="10" y="4618">  │ │ ├─┬ detective@4.5.0 </tspan>
<tspan x="10" y="4634">  │ │ │ ├── acorn@4.0.11 </tspan>
<tspan x="10" y="4650">  │ │ │ └── defined@1.0.0 </tspan>
<tspan x="10" y="4666">  │ │ ├─┬ JSONStream@1.3.1 </tspan>
<tspan x="10" y="4682">  │ │ │ └── jsonparse@1.3.0 </tspan>
<tspan x="10" y="4698">  │ │ ├─┬ parents@1.0.1 </tspan>
<tspan x="10" y="4714">  │ │ │ └── path-platform@0.11.15 </tspan>
<tspan x="10" y="4730">  │ │ ├─┬ readable-stream@1.1.14 </tspan>
<tspan x="10" y="4746">  │ │ │ ├── isarray@0.0.1 </tspan>
<tspan x="10" y="4762">  │ │ │ └── string_decoder@0.10.31 </tspan>
<tspan x="10" y="4778">  │ │ ├── resolve@1.3.2 </tspan>
<tspan x="10" y="4794">  │ │ ├─┬ stream-combiner2@1.0.2 </tspan>
<tspan x="10" y="4810">  │ │ │ └─┬ through2@0.5.1 </tspan>
<tspan x="10" y="4826">  │ │ │   ├─┬ readable-stream@1.0.34 </tspan>
<tspan x="10" y="4842">  │ │ │   │ ├── isarray@0.0.1 </tspan>
<tspan x="10" y="4858">  │ │ │   │ └── string_decoder@0.10.31 </tspan>
<tspan x="10" y="4874">  │ │ │   └── xtend@3.0.0 </tspan>
<tspan x="10" y="4890">  │ │ ├── through2@1.1.1 </tspan>
<tspan x="10" y="4906">  │ │ └── xtend@4.0.1 </tspan>
<tspan x="10" y="4922">  │ ├── os-browserify@0.1.2 </tspan>
<tspan x="10" y="4938">  │ ├─┬ parents@0.0.3 </tspan>
<tspan x="10" y="4954">  │ │ └── path-platform@0.0.1 </tspan>
<tspan x="10" y="4970">  │ ├── path-browserify@0.0.0 </tspan>
<tspan x="10" y="4986">  │ ├── process@0.8.0 </tspan>
<tspan x="10" y="5002">  │ ├── punycode@1.2.4 </tspan>
<tspan x="10" y="5018">  │ ├── querystring-es3@0.2.1 </tspan>
<tspan x="10" y="5034">  │ ├── readable-stream@1.1.14 </tspan>
<tspan x="10" y="5050">  │ ├── resolve@0.7.4 </tspan>
<tspan x="10" y="5066">  │ ├── shallow-copy@0.0.1 </tspan>
<tspan x="10" y="5082">  │ ├─┬ shasum@1.0.2 </tspan>
<tspan x="10" y="5098">  │ │ ├─┬ json-stable-stringify@0.0.1 </tspan>
<tspan x="10" y="5114">  │ │ │ └── jsonify@0.0.0 </tspan>
<tspan x="10" y="5130">  │ │ └── sha.js@2.4.8 </tspan>
<tspan x="10" y="5146">  │ ├── shell-quote@0.0.1 </tspan>
<tspan x="10" y="5162">  │ ├─┬ stream-browserify@1.0.0 </tspan>
<tspan x="10" y="5178">  │ │ └─┬ readable-stream@1.1.14 </tspan>
<tspan x="10" y="5194">  │ │   ├── isarray@0.0.1 </tspan>
<tspan x="10" y="5210">  │ │   └── string_decoder@0.10.31 </tspan>
<tspan x="10" y="5226">  │ ├── string_decoder@0.10.31 </tspan>
<tspan x="10" y="5242">  │ ├─┬ subarg@1.0.0 </tspan>
<tspan x="10" y="5258">  │ │ └── minimist@1.2.0 </tspan>
<tspan x="10" y="5274">  │ ├─┬ syntax-error@1.3.0 </tspan>
<tspan x="10" y="5290">  │ │ └── acorn@4.0.11 </tspan>
<tspan x="10" y="5306">  │ ├─┬ through2@1.1.1 </tspan>
<tspan x="10" y="5322">  │ │ └── xtend@4.0.1 </tspan>
<tspan x="10" y="5338">  │ ├─┬ timers-browserify@1.4.2 </tspan>
<tspan x="10" y="5354">  │ │ └── process@0.11.9 </tspan>
<tspan x="10" y="5370">  │ ├── tty-browserify@0.0.0 </tspan>
<tspan x="10" y="5386">  │ ├─┬ umd@2.1.0 </tspan>
<tspan x="10" y="5402">  │ │ ├─┬ rfile@1.0.0 </tspan>
<tspan x="10" y="5418">  │ │ │ ├── callsite@1.0.0 </tspan>
<tspan x="10" y="5434">  │ │ │ └── resolve@0.3.1 </tspan>
<tspan x="10" y="5450">  │ │ ├─┬ ruglify@1.0.0 </tspan>
<tspan x="10" y="5466">  │ │ │ └─┬ uglify-js@2.2.5 </tspan>
<tspan x="10" y="5482">  │ │ │   └── optimist@0.3.7 </tspan>
<tspan x="10" y="5498">  │ │ └─┬ uglify-js@2.4.24 </tspan>
<tspan x="10" y="5514">  │ │   ├── async@0.2.10 </tspan>
<tspan x="10" y="5530">  │ │   ├── source-map@0.1.34 </tspan>
<tspan x="10" y="5546">  │ │   ├── uglify-to-browserify@1.0.2 </tspan>
<tspan x="10" y="5562">  │ │   └─┬ yargs@3.5.4 </tspan>
<tspan x="10" y="5578">  │ │     ├── camelcase@1.2.1 </tspan>
<tspan x="10" y="5594">  │ │     ├── decamelize@1.2.0 </tspan>
<tspan x="10" y="5610">  │ │     └── window-size@0.1.0 </tspan>
<tspan x="10" y="5626">  │ ├─┬ url@0.10.3 </tspan>
<tspan x="10" y="5642">  │ │ ├── punycode@1.3.2 </tspan>
<tspan x="10" y="5658">  │ │ └── querystring@0.2.0 </tspan>
<tspan x="10" y="5674">  │ ├─┬ util@0.10.3 </tspan>
<tspan x="10" y="5690">  │ │ └── inherits@2.0.1 </tspan>
<tspan x="10" y="5706">  │ ├─┬ vm-browserify@0.0.4 </tspan>
<tspan x="10" y="5722">  │ │ └── indexof@0.0.1 </tspan>
<tspan x="10" y="5738">  │ └── xtend@3.0.0 </tspan>
<tspan x="10" y="5754">  ├── canvas-fit@0.0.0 </tspan>
<tspan x="10" y="5770">  ├─┬ chalk@0.4.0 </tspan>
<tspan x="10" y="5786">  │ ├── ansi-styles@1.0.0 </tspan>
<tspan x="10" y="5802">  │ ├── has-color@0.1.7 </tspan>
<tspan x="10" y="5818">  │ └── strip-ansi@0.1.1 </tspan>
<tspan x="10" y="5834">  ├── clamp@1.0.1 </tspan>
<tspan x="10" y="5850">  ├── conway-hart@0.1.0 </tspan>
<tspan x="10" y="5866">  ├── domify@1.4.0 </tspan>
<tspan x="10" y="5882">  ├─┬ ecstatic@1.4.1 </tspan>
<tspan x="10" y="5898">  │ ├── he@0.5.0 </tspan>
<tspan x="10" y="5914">  │ ├── minimist@1.2.0 </tspan>
<tspan x="10" y="5930">  │ └── url-join@1.1.0 </tspan>
<tspan x="10" y="5946">  ├─┬ envify@1.2.1 </tspan>
<tspan x="10" y="5962">  │ ├── esprima-fb@3001.1.0-dev-harmony-fb </tspan>
<tspan x="10" y="5978">  │ ├─┬ jstransform@3.0.0 </tspan>
<tspan x="10" y="5994">  │ │ ├── base62@0.1.1 </tspan>
<tspan x="10" y="6010">  │ │ ├── esprima-fb@3001.1.0-dev-harmony-fb </tspan>
<tspan x="10" y="6026">  │ │ └── source-map@0.1.31 </tspan>
<tspan x="10" y="6042">  │ └── through@2.3.8 </tspan>
<tspan x="10" y="6058">  ├── findup-element@0.0.0 </tspan>
<tspan x="10" y="6074">  ├─┬ frame-debounce@0.0.0 </tspan>
<tspan x="10" y="6090">  │ └── raf-component@1.1.2 </tspan>
<tspan x="10" y="6106">  ├─┬ gl-axes@2.3.0 </tspan>
<tspan x="10" y="6122">  │ ├── bit-twiddle@1.0.2 </tspan>
<tspan x="10" y="6138">  │ ├── extract-frustum-planes@1.0.0 </tspan>
<tspan x="10" y="6154">  │ ├─┬ gl-state@1.0.0 </tspan>
<tspan x="10" y="6170">  │ │ └── uniq@1.0.1 </tspan>
<tspan x="10" y="6186">  │ ├─┬ split-polygon@1.0.0 </tspan>
<tspan x="10" y="6202">  │ │ ├─┬ robust-dot-product@1.0.0 </tspan>
<tspan x="10" y="6218">  │ │ │ └── two-product@1.0.2 </tspan>
<tspan x="10" y="6234">  │ │ └── robust-sum@1.0.0 </tspan>
<tspan x="10" y="6250">  │ └─┬ vectorize-text@2.0.4 </tspan>
<tspan x="10" y="6266">  │   ├── canvas-browserify@1.1.3 </tspan>
<tspan x="10" y="6282">  │   ├─┬ planar-graph-to-polyline@1.0.5 </tspan>
<tspan x="10" y="6298">  │   │ ├── edges-to-adjacency-list@1.0.0 </tspan>
<tspan x="10" y="6314">  │   │ ├─┬ planar-dual@1.0.2 </tspan>
<tspan x="10" y="6330">  │   │ │ ├─┬ compare-angle@1.0.1 </tspan>
<tspan x="10" y="6346">  │   │ │ │ ├── robust-product@1.0.0 </tspan>
<tspan x="10" y="6362">  │   │ │ │ ├── signum@0.0.0 </tspan>
<tspan x="10" y="6378">  │   │ │ │ └── two-sum@1.0.0 </tspan>
<tspan x="10" y="6394">  │   │ │ └── dup@1.0.0 </tspan>
<tspan x="10" y="6410">  │   │ ├─┬ point-in-big-polygon@2.0.0 </tspan>
<tspan x="10" y="6426">  │   │ │ ├── binary-search-bounds@1.0.0 </tspan>
<tspan x="10" y="6442">  │   │ │ ├── interval-tree-1d@1.0.3 </tspan>
<tspan x="10" y="6458">  │   │ │ └─┬ slab-decomposition@1.0.2 </tspan>
<tspan x="10" y="6474">  │   │ │   └── functional-red-black-tree@1.0.1 </tspan>
<tspan x="10" y="6490">  │   │ └─┬ robust-orientation@1.1.3 </tspan>
<tspan x="10" y="6506">  │   │   ├── robust-scale@1.0.2 </tspan>
<tspan x="10" y="6522">  │   │   └── robust-subtract@1.0.0 </tspan>
<tspan x="10" y="6538">  │   ├─┬ simplify-planar-graph@2.0.1 </tspan>
<tspan x="10" y="6554">  │   │ └─┬ simplicial-complex@0.3.3 </tspan>
<tspan x="10" y="6570">  │   │   └── union-find@0.0.4 </tspan>
<tspan x="10" y="6586">  │   ├─┬ surface-nets@1.0.2 </tspan>
<tspan x="10" y="6602">  │   │ ├─┬ ndarray-extract-contour@1.0.1 </tspan>
<tspan x="10" y="6618">  │   │ │ └─┬ typedarray-pool@1.1.0 </tspan>
<tspan x="10" y="6634">  │   │ │   ├── bit-twiddle@1.0.2 </tspan>
<tspan x="10" y="6650">  │   │ │   └── dup@1.0.0 </tspan>
<tspan x="10" y="6666">  │   │ ├─┬ triangulate-hypercube@1.0.1 </tspan>
<tspan x="10" y="6682">  │   │ │ ├── gamma@0.1.0 </tspan>
<tspan x="10" y="6698">  │   │ │ ├─┬ permutation-parity@1.0.0 </tspan>
<tspan x="10" y="6714">  │   │ │ │ └─┬ typedarray-pool@1.1.0 </tspan>
<tspan x="10" y="6730">  │   │ │ │   ├── bit-twiddle@1.0.2 </tspan>
<tspan x="10" y="6746">  │   │ │ │   └── dup@1.0.0 </tspan>
<tspan x="10" y="6762">  │   │ │ └─┬ permutation-rank@1.0.0 </tspan>
<tspan x="10" y="6778">  │   │ │   ├── invert-permutation@1.0.0 </tspan>
<tspan x="10" y="6794">  │   │ │   └─┬ typedarray-pool@1.1.0 </tspan>
<tspan x="10" y="6810">  │   │ │     ├── bit-twiddle@1.0.2 </tspan>
<tspan x="10" y="6826">  │   │ │     └── dup@1.0.0 </tspan>
<tspan x="10" y="6842">  │   │ └── zero-crossings@1.0.1 </tspan>
<tspan x="10" y="6858">  │   └─┬ triangulate-polyline@1.0.3 </tspan>
<tspan x="10" y="6874">  │     └─┬ cdt2d@1.0.0 </tspan>
<tspan x="10" y="6890">  │       ├── binary-search-bounds@2.0.3 </tspan>
<tspan x="10" y="6906">  │       └── robust-in-sphere@1.1.3 </tspan>
<tspan x="10" y="6922">  ├─┬ gl-buffer@2.1.2 </tspan>
<tspan x="10" y="6938">  │ ├─┬ ndarray-ops@1.2.2 </tspan>
<tspan x="10" y="6954">  │ │ └── cwise-compiler@1.1.2 </tspan>
<tspan x="10" y="6970">  │ └─┬ typedarray-pool@1.1.0 </tspan>
<tspan x="10" y="6986">  │   ├── bit-twiddle@1.0.2 </tspan>
<tspan x="10" y="7002">  │   └── dup@1.0.0 </tspan>
<tspan x="10" y="7018">  ├─┬ gl-compare@1.0.0 </tspan>
<tspan x="10" y="7034">  │ └── canvas-pixels@0.0.0 </tspan>
<tspan x="10" y="7050">  ├─┬ gl-compare-sidebar@1.1.4 </tspan>
<tspan x="10" y="7066">  │ ├── escape-html@1.0.3 </tspan>
<tspan x="10" y="7082">  │ └── range-slider@1.0.2 </tspan>
<tspan x="10" y="7098">  ├── gl-context@0.1.1 </tspan>
<tspan x="10" y="7114">  ├─┬ gl-fbo@1.1.3 </tspan>
<tspan x="10" y="7130">  │ └─┬ webglew@1.0.5 </tspan>
<tspan x="10" y="7146">  │   └── weak-map@1.0.5 </tspan>
<tspan x="10" y="7162">  ├── gl-fbo-matching@1.0.0 </tspan>
<tspan x="10" y="7178">  ├── gl-matrix@2.3.2 </tspan>
<tspan x="10" y="7194">  ├─┬ gl-texture2d@1.2.0 </tspan>
<tspan x="10" y="7210">  │ ├─┬ typedarray-pool@1.1.0 </tspan>
<tspan x="10" y="7226">  │ │ ├── bit-twiddle@1.0.2 </tspan>
<tspan x="10" y="7242">  │ │ └── dup@1.0.0 </tspan>
<tspan x="10" y="7258">  │ └── webglew@1.0.5 </tspan>
<tspan x="10" y="7274">  ├── gl-vao@1.3.0 </tspan>
<tspan x="10" y="7290">  ├── glsldoc@0.0.4 </tspan>
<tspan x="10" y="7306">  ├─┬ glslify@1.6.1 </tspan>
<tspan x="10" y="7322">  │ ├── cssauron@0.0.2 </tspan>
<tspan x="10" y="7338">  │ ├─┬ cssauron-glsl@0.0.0 </tspan>
<tspan x="10" y="7354">  │ │ └── cssauron@1.4.0 </tspan>
<tspan x="10" y="7370">  │ ├── emit-function@0.0.2 </tspan>
<tspan x="10" y="7386">  │ ├── esprima@1.1.1 </tspan>
<tspan x="10" y="7402">  │ ├─┬ gl-shader-core@2.2.0 </tspan>
<tspan x="10" y="7418">  │ │ └── dup@1.0.0 </tspan>
<tspan x="10" y="7434">  │ ├─┬ glsl-deparser@0.0.2 </tspan>
<tspan x="10" y="7450">  │ │ └── through@1.1.2 </tspan>
<tspan x="10" y="7466">  │ ├─┬ glsl-extract@0.0.2 </tspan>
<tspan x="10" y="7482">  │ │ ├─┬ glsl-parser@0.0.5 </tspan>
<tspan x="10" y="7498">  │ │ │ └── through@1.1.2 </tspan>
<tspan x="10" y="7514">  │ │ ├── glsl-tokenizer@0.0.8 </tspan>
<tspan x="10" y="7530">  │ │ └─┬ utf8-stream@0.0.0 </tspan>
<tspan x="10" y="7546">  │ │   └─┬ readable-stream@1.0.34 </tspan>
<tspan x="10" y="7562">  │ │     ├── isarray@0.0.1 </tspan>
<tspan x="10" y="7578">  │ │     └── string_decoder@0.10.31 </tspan>
<tspan x="10" y="7594">  │ ├─┬ glsl-min-stream@0.0.2 </tspan>
<tspan x="10" y="7610">  │ │ └── through@1.1.2 </tspan>
<tspan x="10" y="7626">  │ ├─┬ glslify-stream@0.4.1 </tspan>
<tspan x="10" y="7642">  │ │ ├── cssauron@0.0.3 </tspan>
<tspan x="10" y="7658">  │ │ ├─┬ glsl-parser@1.0.1 </tspan>
<tspan x="10" y="7674">  │ │ │ ├── glsl-tokenizer@1.1.1 </tspan>
<tspan x="10" y="7690">  │ │ │ └── through@2.3.4 </tspan>
<tspan x="10" y="7706">  │ │ ├── resolve@0.5.1 </tspan>
<tspan x="10" y="7722">  │ │ ├─┬ stream-combiner@0.0.2 </tspan>
<tspan x="10" y="7738">  │ │ │ └── duplexer@0.0.4 </tspan>
<tspan x="10" y="7754">  │ │ ├── through@1.1.2 </tspan>
<tspan x="10" y="7770">  │ │ └── wrap-stream@0.0.0 </tspan>
<tspan x="10" y="7786">  │ ├─┬ new-from@0.0.3 </tspan>
<tspan x="10" y="7802">  │ │ └─┬ readable-stream@1.1.14 </tspan>
<tspan x="10" y="7818">  │ │   ├── isarray@0.0.1 </tspan>
<tspan x="10" y="7834">  │ │   └── string_decoder@0.10.31 </tspan>
<tspan x="10" y="7850">  │ ├─┬ nopt@2.2.1 </tspan>
<tspan x="10" y="7866">  │ │ └── abbrev@1.1.0 </tspan>
<tspan x="10" y="7882">  │ ├─┬ replace-method@0.0.0 </tspan>
<tspan x="10" y="7898">  │ │ └─┬ recast@0.5.27 </tspan>
<tspan x="10" y="7914">  │ │   ├── ast-types@0.3.38 </tspan>
<tspan x="10" y="7930">  │ │   ├── cls@0.1.5 </tspan>
<tspan x="10" y="7946">  │ │   ├── esprima@1.1.0-dev-harmony  (git+https://github.com/ariya/esprima.git#a65a3eb93b9a5dc\</tspan>
<tspan x="10" y="7962">e9a1184ca2d1bd0b184c6b8fd)</tspan>
<tspan x="10" y="7978">  │ │   ├── private@0.1.7 </tspan>
<tspan x="10" y="7994">  │ │   └── source-map@0.1.32 </tspan>
<tspan x="10" y="8010">  │ ├── shortest@0.0.0 </tspan>
<tspan x="10" y="8026">  │ ├─┬ sleuth@0.1.1 </tspan>
<tspan x="10" y="8042">  │ │ ├── is-require@0.0.1 </tspan>
<tspan x="10" y="8058">  │ │ └── static-eval@0.1.1 </tspan>
<tspan x="10" y="8074">  │ └─┬ static-eval@0.2.4 </tspan>
<tspan x="10" y="8090">  │   └─┬ escodegen@0.0.28 </tspan>
<tspan x="10" y="8106">  │     ├── esprima@1.0.4 </tspan>
<tspan x="10" y="8122">  │     └── estraverse@1.3.2 </tspan>
<tspan x="10" y="8138">  ├─┬ glslify-live@2.1.1 </tspan>
<tspan x="10" y="8154">  │ ├─┬ envify@2.0.1 </tspan>
<tspan x="10" y="8170">  │ │ └── esprima-fb@3001.1.0-dev-harmony-fb </tspan>
<tspan x="10" y="8186">  │ ├── esprima@1.2.5 </tspan>
<tspan x="10" y="8202">  │ ├─┬ gl-shader-update@0.0.0 </tspan>
<tspan x="10" y="8218">  │ │ └── glsl-extract-sync@0.0.0 </tspan>
<tspan x="10" y="8234">  │ ├── glsl-resolve@0.0.1 </tspan>
<tspan x="10" y="8250">  │ ├─┬ glslify-bundle@1.0.3 </tspan>
<tspan x="10" y="8266">  │ │ ├─┬ glsl-deparser@0.0.3 </tspan>
<tspan x="10" y="8282">  │ │ │ └── through@1.1.2 </tspan>
<tspan x="10" y="8298">  │ │ ├── multipipe@0.1.2 </tspan>
<tspan x="10" y="8314">  │ │ └── resolve@0.7.4 </tspan>
<tspan x="10" y="8330">  │ ├─┬ request@2.81.0 </tspan>
<tspan x="10" y="8346">  │ │ ├── aws-sign2@0.6.0 </tspan>
<tspan x="10" y="8362">  │ │ ├── aws4@1.6.0 </tspan>
<tspan x="10" y="8378">  │ │ ├── caseless@0.12.0 </tspan>
<tspan x="10" y="8394">  │ │ ├─┬ combined-stream@1.0.5 </tspan>
<tspan x="10" y="8410">  │ │ │ └── delayed-stream@1.0.0 </tspan>
<tspan x="10" y="8426">  │ │ ├── extend@3.0.0 </tspan>
<tspan x="10" y="8442">  │ │ ├── forever-agent@0.6.1 </tspan>
<tspan x="10" y="8458">  │ │ ├─┬ form-data@2.1.2 </tspan>
<tspan x="10" y="8474">  │ │ │ └── asynckit@0.4.0 </tspan>
<tspan x="10" y="8490">  │ │ ├─┬ har-validator@4.2.1 </tspan>
<tspan x="10" y="8506">  │ │ │ ├─┬ ajv@4.11.5 </tspan>
<tspan x="10" y="8522">  │ │ │ │ ├── co@4.6.0 </tspan>
<tspan x="10" y="8538">  │ │ │ │ └── json-stable-stringify@1.0.1 </tspan>
<tspan x="10" y="8554">  │ │ │ └── har-schema@1.0.5 </tspan>
<tspan x="10" y="8570">  │ │ ├─┬ hawk@3.1.3 </tspan>
<tspan x="10" y="8586">  │ │ │ ├── boom@2.10.1 </tspan>
<tspan x="10" y="8602">  │ │ │ ├── cryptiles@2.0.5 </tspan>
<tspan x="10" y="8618">  │ │ │ ├── hoek@2.16.3 </tspan>
<tspan x="10" y="8634">  │ │ │ └── sntp@1.0.9 </tspan>
<tspan x="10" y="8650">  │ │ ├─┬ http-signature@1.1.1 </tspan>
<tspan x="10" y="8666">  │ │ │ ├── assert-plus@0.2.0 </tspan>
<tspan x="10" y="8682">  │ │ │ ├─┬ jsprim@1.4.0 </tspan>
<tspan x="10" y="8698">  │ │ │ │ ├── assert-plus@1.0.0 </tspan>
<tspan x="10" y="8714">  │ │ │ │ ├── extsprintf@1.0.2 </tspan>
<tspan x="10" y="8730">  │ │ │ │ ├── json-schema@0.2.3 </tspan>
<tspan x="10" y="8746">  │ │ │ │ └── verror@1.3.6 </tspan>
<tspan x="10" y="8762">  │ │ │ └─┬ sshpk@1.11.0 </tspan>
<tspan x="10" y="8778">  │ │ │   ├── asn1@0.2.3 </tspan>
<tspan x="10" y="8794">  │ │ │   ├── assert-plus@1.0.0 </tspan>
<tspan x="10" y="8810">  │ │ │   ├── bcrypt-pbkdf@1.0.1 </tspan>
<tspan x="10" y="8826">  │ │ │   ├─┬ dashdash@1.14.1 </tspan>
<tspan x="10" y="8842">  │ │ │   │ └── assert-plus@1.0.0 </tspan>
<tspan x="10" y="8858">  │ │ │   ├── ecc-jsbn@0.1.1 </tspan>
<tspan x="10" y="8874">  │ │ │   ├─┬ getpass@0.1.6 </tspan>
<tspan x="10" y="8890">  │ │ │   │ └── assert-plus@1.0.0 </tspan>
<tspan x="10" y="8906">  │ │ │   ├── jodid25519@1.0.2 </tspan>
<tspan x="10" y="8922">  │ │ │   ├── jsbn@0.1.1 </tspan>
<tspan x="10" y="8938">  │ │ │   └── tweetnacl@0.14.5 </tspan>
<tspan x="10" y="8954">  │ │ ├── is-typedarray@1.0.0 </tspan>
<tspan x="10" y="8970">  │ │ ├── isstream@0.1.2 </tspan>
<tspan x="10" y="8986">  │ │ ├── json-stringify-safe@5.0.1 </tspan>
<tspan x="10" y="9002">  │ │ ├─┬ mime-types@2.1.15 </tspan>
<tspan x="10" y="9018">  │ │ │ └── mime-db@1.27.0 </tspan>
<tspan x="10" y="9034">  │ │ ├── oauth-sign@0.8.2 </tspan>
<tspan x="10" y="9050">  │ │ ├── performance-now@0.2.0 </tspan>
<tspan x="10" y="9066">  │ │ ├── qs@6.4.0 </tspan>
<tspan x="10" y="9082">  │ │ ├── safe-buffer@5.0.1 </tspan>
<tspan x="10" y="9098">  │ │ ├── stringstream@0.0.5 </tspan>
<tspan x="10" y="9114">  │ │ ├─┬ tough-cookie@2.3.2 </tspan>
<tspan x="10" y="9130">  │ │ │ └── punycode@1.4.1 </tspan>
<tspan x="10" y="9146">  │ │ ├── tunnel-agent@0.6.0 </tspan>
<tspan x="10" y="9162">  │ │ └── uuid@3.0.1 </tspan>
<tspan x="10" y="9178">  │ ├─┬ sse-stream@0.0.4 </tspan>
<tspan x="10" y="9194">  │ │ └── through@2.2.7 </tspan>
<tspan x="10" y="9210">  │ └── uuid@1.4.2 </tspan>
<tspan x="10" y="9226">  ├── google-fonts@0.0.0 </tspan>
<tspan x="10" y="9242">  ├── highlight.js@8.9.1 </tspan>
<tspan x="10" y="9258">  ├─┬ inquirer@0.5.1 </tspan>
<tspan x="10" y="9274">  │ ├── async@0.8.0 </tspan>
<tspan x="10" y="9290">  │ ├─┬ cli-color@0.3.3 </tspan>
<tspan x="10" y="9306">  │ │ ├── d@0.1.1 </tspan>
<tspan x="10" y="9322">  │ │ ├─┬ es5-ext@0.10.15 </tspan>
<tspan x="10" y="9338">  │ │ │ ├─┬ es6-iterator@2.0.1 </tspan>
<tspan x="10" y="9354">  │ │ │ │ └── d@1.0.0 </tspan>
<tspan x="10" y="9370">  │ │ │ └─┬ es6-symbol@3.1.1 </tspan>
<tspan x="10" y="9386">  │ │ │   └── d@1.0.0 </tspan>
<tspan x="10" y="9402">  │ │ ├─┬ memoizee@0.3.10 </tspan>
<tspan x="10" y="9418">  │ │ │ ├─┬ es6-weak-map@0.1.4 </tspan>
<tspan x="10" y="9434">  │ │ │ │ ├── es6-iterator@0.1.3 </tspan>
<tspan x="10" y="9450">  │ │ │ │ └── es6-symbol@2.0.1 </tspan>
<tspan x="10" y="9466">  │ │ │ ├─┬ event-emitter@0.3.5 </tspan>
<tspan x="10" y="9482">  │ │ │ │ └── d@1.0.0 </tspan>
<tspan x="10" y="9498">  │ │ │ ├── lru-queue@0.1.0 </tspan>
<tspan x="10" y="9514">  │ │ │ └── next-tick@0.2.2 </tspan>
<tspan x="10" y="9530">  │ │ └─┬ timers-ext@0.1.2 </tspan>
<tspan x="10" y="9546">  │ │   └── next-tick@1.0.0 </tspan>
<tspan x="10" y="9562">  │ ├── lodash@2.4.2 </tspan>
<tspan x="10" y="9578">  │ ├── mute-stream@0.0.4 </tspan>
<tspan x="10" y="9594">  │ └─┬ readline2@0.1.1 </tspan>
<tspan x="10" y="9610">  │   └─┬ strip-ansi@2.0.1 </tspan>
<tspan x="10" y="9626">  │     └── ansi-regex@1.1.1 </tspan>
<tspan x="10" y="9642">  ├── insert-css@0.1.1 </tspan>
<tspan x="10" y="9658">  ├── marked@0.3.6 </tspan>
<tspan x="10" y="9674">  ├─┬ mesh-normals@1.0.0 </tspan>
<tspan x="10" y="9690">  │ ├── face-normals@0.0.0 </tspan>
<tspan x="10" y="9706">  │ ├── normals@0.1.0 </tspan>
<tspan x="10" y="9722">  │ └── unindex-mesh@0.0.0 </tspan>
<tspan x="10" y="9738">  ├── mkdirp@0.5.1 </tspan>
<tspan x="10" y="9754">  ├── mouse-position@1.0.0 </tspan>
<tspan x="10" y="9770">  ├── mouse-pressed@0.0.1 </tspan>
<tspan x="10" y="9786">  ├─┬ ndarray@1.0.18 </tspan>
<tspan x="10" y="9802">  │ ├── iota-array@1.0.0 </tspan>
<tspan x="10" y="9818">  │ └── is-buffer@1.1.5 </tspan>
<tspan x="10" y="9834">  ├─┬ ndarray-distance@0.0.0 </tspan>
<tspan x="10" y="9850">  │ └─┬ cwise@0.4.0 </tspan>
<tspan x="10" y="9866">  │   ├─┬ cwise-compiler@0.1.0 </tspan>
<tspan x="10" y="9882">  │   │ └── uniq@0.0.2 </tspan>
<tspan x="10" y="9898">  │   └─┬ cwise-parser@0.0.1 </tspan>
<tspan x="10" y="9914">  │     ├── esprima@1.0.4 </tspan>
<tspan x="10" y="9930">  │     └── uniq@0.0.2 </tspan>
<tspan x="10" y="9946">  ├── opener@1.4.3 </tspan>
<tspan x="10" y="9962">  ├── quotemeta@0.0.0 </tspan>
<tspan x="10" y="9978">  ├─┬ raf@2.0.4 </tspan>
<tspan x="10" y="9994">  │ └── performance-now@0.1.4 </tspan>
<tspan x="10" y="10010">  ├── remove-element@0.0.0 </tspan>
<tspan x="10" y="10026">  ├─┬ rework@0.20.3 </tspan>
<tspan x="10" y="10042">  │ ├── color-parser@0.1.0 </tspan>
<tspan x="10" y="10058">  │ ├── convert-source-map@0.3.5 </tspan>
<tspan x="10" y="10074">  │ ├─┬ css@1.6.0 </tspan>
<tspan x="10" y="10090">  │ │ └── css-stringify@1.4.1 </tspan>
<tspan x="10" y="10106">  │ ├─┬ debug@2.6.3 </tspan>
<tspan x="10" y="10122">  │ │ └── ms@0.7.2 </tspan>
<tspan x="10" y="10138">  │ ├── hsb2rgb@1.0.2 </tspan>
<tspan x="10" y="10154">  │ ├── rework-inherit@0.2.3 </tspan>
<tspan x="10" y="10170">  │ └── rework-visit@1.0.0 </tspan>
<tspan x="10" y="10186">  ├─┬ rework-inline@0.2.0 </tspan>
<tspan x="10" y="10202">  │ ├── find-file@0.1.4 </tspan>
<tspan x="10" y="10218">  │ └── parse-import@0.1.3 </tspan>
<tspan x="10" y="10234">  ├─┬ rework-npm@0.6.1 </tspan>
<tspan x="10" y="10250">  │ └── css-parse@1.7.0 </tspan>
<tspan x="10" y="10266">  ├── right-now@1.0.0 </tspan>
<tspan x="10" y="10282">  ├── sidenote@1.0.0 </tspan>
<tspan x="10" y="10298">  ├── sliced@0.0.5 </tspan>
<tspan x="10" y="10314">  ├─┬ stanford-dragon@1.1.1 </tspan>
<tspan x="10" y="10330">  │ ├─┬ glob@3.2.11 </tspan>
<tspan x="10" y="10346">  │ │ └─┬ minimatch@0.3.0 </tspan>
<tspan x="10" y="10362">  │ │   ├── lru-cache@2.7.3 </tspan>
<tspan x="10" y="10378">  │ │   └── sigmund@1.0.1 </tspan>
<tspan x="10" y="10394">  │ ├─┬ map-limit@0.0.0 </tspan>
<tspan x="10" y="10410">  │ │ └── once@1.3.3 </tspan>
<tspan x="10" y="10426">  │ └─┬ parse-ply@0.1.0 </tspan>
<tspan x="10" y="10442">  │   └── is-little-endian@0.0.0 </tspan>
<tspan x="10" y="10458">  ├── wordwrap@0.0.2 </tspan>
<tspan x="10" y="10474">  ├─┬ xhr@1.17.1 </tspan>
<tspan x="10" y="10490">  │ ├─┬ global@4.3.1 </tspan>
<tspan x="10" y="10506">  │ │ ├─┬ min-document@2.19.0 </tspan>
<tspan x="10" y="10522">  │ │ │ └── dom-walk@0.1.1 </tspan>
<tspan x="10" y="10538">  │ │ └── process@0.5.2 </tspan>
<tspan x="10" y="10554">  │ ├── once@1.1.1 </tspan>
<tspan x="10" y="10570">  │ └─┬ parse-headers@2.0.1 </tspan>
<tspan x="10" y="10586">  │   ├─┬ for-each@0.3.2 </tspan>
<tspan x="10" y="10602">  │   │ └── is-function@1.0.1 </tspan>
<tspan x="10" y="10618">  │   └── trim@0.0.1 </tspan>
<tspan x="10" y="10634">  └── zfill@0.0.2</tspan>
</text>
</svg>
