<svg height="4526" width="720" xmlns="http://www.w3.org/2000/svg">
<rect height="4526" fill="#555" width="720"></rect>
<text fill="#7f7" font-family="Courier New" font-size="12" xml:space="preserve">
<tspan x="10" y="26"></tspan>
<tspan x="10" y="42">&gt; npmdoc-shader-school@0.0.1 test /home/travis/build/npmdoc/node-npmdoc-shader-school</tspan>
<tspan x="10" y="58">&gt; (set -e; export PORT=$(utility2 shServerPortRandom); utility2 test test.js)</tspan>
<tspan x="10" y="74"></tspan>
<tspan x="10" y="90"></tspan>
<tspan x="10" y="106">[MODE_BUILD=npmTest] - 2017-04-07T11:58:54Z - npm-testing /home/travis/build/npmdoc/node-npmdoc-\</tspan>
<tspan x="10" y="122">shader-school</tspan>
<tspan x="10" y="138"></tspan>
<tspan x="10" y="154"></tspan>
<tspan x="10" y="170">covering $ /home/travis/.nvm/versions/node/v6.10.2/bin/node /home/travis/build/npmdoc/node-npmdo\</tspan>
<tspan x="10" y="186">c-shader-school/test.js</tspan>
<tspan x="10" y="202">merging file:///home/travis/build/npmdoc/node-npmdoc-shader-school/tmp/build/test-report.json to\</tspan>
<tspan x="10" y="218"> test-report</tspan>
<tspan x="10" y="234">&gt; server listening on http-port 53711</tspan>
<tspan x="10" y="250"></tspan>
<tspan x="10" y="266"> ==============================</tspan>
<tspan x="10" y="282"> = ~~~~~ shader-school ~~~~~~ =</tspan>
<tspan x="10" y="298"> ==============================</tspan>
<tspan x="10" y="314"></tspan>
<tspan x="10" y="330">created apidoc file:///home/travis/build/npmdoc/node-npmdoc-shader-school/tmp/build/apidoc.html</tspan>
<tspan x="10" y="346"></tspan>
<tspan x="10" y="362"></tspan>
<tspan x="10" y="378">browserTest - created electron entry-page /home/travis/build/npmdoc/node-npmdoc-shader-school/tm\</tspan>
<tspan x="10" y="394">p/electron.15b484814af0.72e52dc42d5e5.html</tspan>
<tspan x="10" y="410"></tspan>
<tspan x="10" y="426">[node test-case 1 of 6 passed] - testCase_buildLib_default</tspan>
<tspan x="10" y="442">[node test-case 2 of 6 passed] - testCase_buildReadme_default</tspan>
<tspan x="10" y="458">[node test-case 3 of 6 passed] - testCase_buildTest_default</tspan>
<tspan x="10" y="474"></tspan>
<tspan x="10" y="490">browserTest - created electron entry-page /home/travis/build/npmdoc/node-npmdoc-shader-school/tm\</tspan>
<tspan x="10" y="506">p/electron.15b484814de0.eef2753640d1d.html</tspan>
<tspan x="10" y="522"></tspan>
<tspan x="10" y="538">[?] We're about to populate this directory with some code for you to use for</tspan>
<tspan x="10" y="554">    your answers. If they've already been created then don't worry, they won't</tspan>
<tspan x="10" y="570">    be replaced. Continue? (Y/n) Xlib:  extension "RANDR" missing on display ":99.0".</tspan>
<tspan x="10" y="586">Xlib:  extension "RANDR" missing on display ":99.0".</tspan>
<tspan x="10" y="602">merging file:///home/travis/build/npmdoc/node-npmdoc-shader-school/tmp/build/test-report.json to\</tspan>
<tspan x="10" y="618"> test-report</tspan>
<tspan x="10" y="634">Xlib:  extension "RANDR" missing on display ":99.0".</tspan>
<tspan x="10" y="650">[5538:0407/115855:WARNING:audio_manager.cc(314)] Multiple instances of AudioManager detected</tspan>
<tspan x="10" y="666">[5538:0407/115855:WARNING:audio_manager.cc(275)] Multiple instances of AudioManager detected</tspan>
<tspan x="10" y="682">merging file:///home/travis/build/npmdoc/node-npmdoc-shader-school/tmp/build/test-report.json to\</tspan>
<tspan x="10" y="698"> test-report</tspan>
<tspan x="10" y="714">[5562:0407/115855:ERROR:sandbox_linux.cc(343)] InitializeSandbox() called with multiple threads \</tspan>
<tspan x="10" y="730">in process gpu-process. </tspan>
<tspan x="10" y="746">Xlib:  extension "RANDR" missing on display ":99.0".</tspan>
<tspan x="10" y="762">[5537:0407/115855:WARNING:audio_manager.cc(314)] Multiple instances of AudioManager detected</tspan>
<tspan x="10" y="778">[5537:0407/115855:WARNING:audio_manager.cc(275)] Multiple instances of AudioManager detected</tspan>
<tspan x="10" y="794">[5538:0407/115855:ERROR:browser_gpu_channel_host_factory.cc(131)] Failed to create channel.</tspan>
<tspan x="10" y="810">[5584:0407/115855:ERROR:sandbox_linux.cc(343)] InitializeSandbox() called with multiple threads \</tspan>
<tspan x="10" y="826">in process gpu-process. </tspan>
<tspan x="10" y="842"></tspan>
<tspan x="10" y="858">browserTest - opened url http://127.0.0.1:53711?modeTest=1</tspan>
<tspan x="10" y="874"></tspan>
<tspan x="10" y="890"></tspan>
<tspan x="10" y="906">browserTest - opened url /home/travis/build/npmdoc/node-npmdoc-shader-school/tmp/build/apidoc.ht\</tspan>
<tspan x="10" y="922">ml</tspan>
<tspan x="10" y="938"></tspan>
<tspan x="10" y="954">[5538:0407/115857:INFO:CONSOLE(250)] "----------|-----------|-----------|-----------|-----------\</tspan>
<tspan x="10" y="970">|</tspan>
<tspan x="10" y="986">File      |   % Stmts |% Branches |   % Funcs |   % Lines |</tspan>
<tspan x="10" y="1002">----------|-----------|-----------|-----------|-----------|</tspan>
<tspan x="10" y="1018">----------|-----------|-----------|-----------|-----------|</tspan>
<tspan x="10" y="1034">All files |       100 |       100 |       100 |       100 |</tspan>
<tspan x="10" y="1050">----------|-----------|-----------|-----------|-----------|</tspan>
<tspan x="10" y="1066">", source: file:///home/travis/build/npmdoc/node-npmdoc-shader-school/tmp/electron.15b484814de0.\</tspan>
<tspan x="10" y="1082">eef2753640d1d.html (250)</tspan>
<tspan x="10" y="1098">[5538:0407/115857:INFO:CONSOLE(250)] "created coverage file:///tmp/build/coverage.html/index.htm\</tspan>
<tspan x="10" y="1114">l", source: file:///home/travis/build/npmdoc/node-npmdoc-shader-school/tmp/electron.15b484814de0\</tspan>
<tspan x="10" y="1130">.eef2753640d1d.html (250)</tspan>
<tspan x="10" y="1146"></tspan>
<tspan x="10" y="1162">browserTest - created screenCapture file:///home/travis/build/npmdoc/node-npmdoc-shader-school/t\</tspan>
<tspan x="10" y="1178">mp/build/screenCapture.npmTest.browser..png</tspan>
<tspan x="10" y="1194"></tspan>
<tspan x="10" y="1210">browserTest - created screenCapture file:///home/travis/build/npmdoc/node-npmdoc-shader-school/t\</tspan>
<tspan x="10" y="1226">mp/build/screenCapture.npmTest.browser..html</tspan>
<tspan x="10" y="1242"></tspan>
<tspan x="10" y="1258">browserTest - created screenCapture file:///home/travis/build/npmdoc/node-npmdoc-shader-school/t\</tspan>
<tspan x="10" y="1274">mp/build/screenCapture.npmTest.browser._2Fhome_2Ftravis_2Fbuild_2Fnpmdoc_2Fnode-npmdoc-shader-sc\</tspan>
<tspan x="10" y="1290">hool_2Ftmp_2Fbuild_2Fapidoc.html.png</tspan>
<tspan x="10" y="1306"></tspan>
<tspan x="10" y="1322"></tspan>
<tspan x="10" y="1338">browserTest - exit-code 0 - http://127.0.0.1:53711?modeTest=1</tspan>
<tspan x="10" y="1354"></tspan>
<tspan x="10" y="1370"></tspan>
<tspan x="10" y="1386">browserTest - merged coverage from /home/travis/build/npmdoc/node-npmdoc-shader-school/tmp/cover\</tspan>
<tspan x="10" y="1402">age.npmTest.browser.%2F.json</tspan>
<tspan x="10" y="1418"></tspan>
<tspan x="10" y="1434"></tspan>
<tspan x="10" y="1450">browserTest - merging test-report from /home/travis/build/npmdoc/node-npmdoc-shader-school/tmp/t\</tspan>
<tspan x="10" y="1466">est-report.npmTest.browser.%2F.json</tspan>
<tspan x="10" y="1482"></tspan>
<tspan x="10" y="1498">[node test-case 4 of 6 passed] - testCase_webpage_default</tspan>
<tspan x="10" y="1514">browserTest - created screenCapture file:///home/travis/build/npmdoc/node-npmdoc-shader-school/t\</tspan>
<tspan x="10" y="1530">mp/build/screenCapture.npmTest.browser._2Fhome_2Ftravis_2Fbuild_2Fnpmdoc_2Fnode-npmdoc-shader-sc\</tspan>
<tspan x="10" y="1546">hool_2Ftmp_2Fbuild_2Fapidoc.html.html</tspan>
<tspan x="10" y="1562"></tspan>
<tspan x="10" y="1578">browserTest - exit-code 0 - /home/travis/build/npmdoc/node-npmdoc-shader-school/tmp/build/apidoc\</tspan>
<tspan x="10" y="1594">.html</tspan>
<tspan x="10" y="1610"></tspan>
<tspan x="10" y="1626"></tspan>
<tspan x="10" y="1642">testCase testCase_buildApidoc_default failed</tspan>
<tspan x="10" y="1658">onTimeout - timeout-error - 30000 ms - testCase_buildApidoc_default</tspan>
<tspan x="10" y="1674">Error: onTimeout - timeout-error - 30000 ms - testCase_buildApidoc_default</tspan>
<tspan x="10" y="1690">    at Timeout._onTimeout (/home/travis/build/npmdoc/node-npmdoc-shader-school/node_modules/util\</tspan>
<tspan x="10" y="1706">ity2/lib.utility2.js:4139:25)</tspan>
<tspan x="10" y="1722">    at ontimeout (timers.js:380:14)</tspan>
<tspan x="10" y="1738">    at tryOnTimeout (timers.js:244:5)</tspan>
<tspan x="10" y="1754">    at Timer.listOnTimeout (timers.js:214:5)</tspan>
<tspan x="10" y="1770">Error</tspan>
<tspan x="10" y="1786">    at Object.local.onTimeout (/home/travis/build/npmdoc/node-npmdoc-shader-school/node_modules/\</tspan>
<tspan x="10" y="1802">utility2/lib.utility2.js:4136:29)</tspan>
<tspan x="10" y="1818">    at /home/travis/build/npmdoc/node-npmdoc-shader-school/node_modules/utility2/lib.utility2.js\</tspan>
<tspan x="10" y="1834">:5423:38</tspan>
<tspan x="10" y="1850">    at onEach2 (/home/travis/build/npmdoc/node-npmdoc-shader-school/node_modules/utility2/lib.ut\</tspan>
<tspan x="10" y="1866">ility2.js:4051:21)</tspan>
<tspan x="10" y="1882">    at Object.local.onParallelList (/home/travis/build/npmdoc/node-npmdoc-shader-school/node_mod\</tspan>
<tspan x="10" y="1898">ules/utility2/lib.utility2.js:4077:13)</tspan>
<tspan x="10" y="1914">    at Object.local.testRunDefault (/home/travis/build/npmdoc/node-npmdoc-shader-school/node_mod\</tspan>
<tspan x="10" y="1930">ules/utility2/lib.utility2.js:5378:19)</tspan>
<tspan x="10" y="1946">    at /home/travis/build/npmdoc/node-npmdoc-shader-school/node_modules/utility2/lib.utility2.js\</tspan>
<tspan x="10" y="1962">:5319:35</tspan>
<tspan x="10" y="1978">    at /home/travis/build/npmdoc/node-npmdoc-shader-school/node_modules/utility2/lib.utility2.js\</tspan>
<tspan x="10" y="1994">:3951:17</tspan>
<tspan x="10" y="2010">    at /home/travis/build/npmdoc/node-npmdoc-shader-school/node_modules/utility2/lib.utility2.js\</tspan>
<tspan x="10" y="2026">:4804:29</tspan>
<tspan x="10" y="2042">    at Array.forEach (native)</tspan>
<tspan x="10" y="2058">[node test-case 5 of 6 failed] - testCase_buildApidoc_default</tspan>
<tspan x="10" y="2074"></tspan>
<tspan x="10" y="2090">testCase testCase_buildApp_default failed</tspan>
<tspan x="10" y="2106">onTimeout - timeout-error - 30000 ms - testCase_buildApp_default</tspan>
<tspan x="10" y="2122">Error: onTimeout - timeout-error - 30000 ms - testCase_buildApp_default</tspan>
<tspan x="10" y="2138">    at Timeout._onTimeout (/home/travis/build/npmdoc/node-npmdoc-shader-school/node_modules/util\</tspan>
<tspan x="10" y="2154">ity2/lib.utility2.js:4139:25)</tspan>
<tspan x="10" y="2170">    at ontimeout (timers.js:380:14)</tspan>
<tspan x="10" y="2186">    at tryOnTimeout (timers.js:244:5)</tspan>
<tspan x="10" y="2202">    at Timer.listOnTimeout (timers.js:214:5)</tspan>
<tspan x="10" y="2218">Error</tspan>
<tspan x="10" y="2234">    at Object.local.onTimeout (/home/travis/build/npmdoc/node-npmdoc-shader-school/node_modules/\</tspan>
<tspan x="10" y="2250">utility2/lib.utility2.js:4136:29)</tspan>
<tspan x="10" y="2266">    at /home/travis/build/npmdoc/node-npmdoc-shader-school/node_modules/utility2/lib.utility2.js\</tspan>
<tspan x="10" y="2282">:5423:38</tspan>
<tspan x="10" y="2298">    at onEach2 (/home/travis/build/npmdoc/node-npmdoc-shader-school/node_modules/utility2/lib.ut\</tspan>
<tspan x="10" y="2314">ility2.js:4051:21)</tspan>
<tspan x="10" y="2330">    at Object.local.onParallelList (/home/travis/build/npmdoc/node-npmdoc-shader-school/node_mod\</tspan>
<tspan x="10" y="2346">ules/utility2/lib.utility2.js:4077:13)</tspan>
<tspan x="10" y="2362">    at Object.local.testRunDefault (/home/travis/build/npmdoc/node-npmdoc-shader-school/node_mod\</tspan>
<tspan x="10" y="2378">ules/utility2/lib.utility2.js:5378:19)</tspan>
<tspan x="10" y="2394">    at /home/travis/build/npmdoc/node-npmdoc-shader-school/node_modules/utility2/lib.utility2.js\</tspan>
<tspan x="10" y="2410">:5319:35</tspan>
<tspan x="10" y="2426">    at /home/travis/build/npmdoc/node-npmdoc-shader-school/node_modules/utility2/lib.utility2.js\</tspan>
<tspan x="10" y="2442">:3951:17</tspan>
<tspan x="10" y="2458">    at /home/travis/build/npmdoc/node-npmdoc-shader-school/node_modules/utility2/lib.utility2.js\</tspan>
<tspan x="10" y="2474">:4804:29</tspan>
<tspan x="10" y="2490">    at Array.forEach (native)</tspan>
<tspan x="10" y="2506">[node test-case 6 of 6 failed] - testCase_buildApp_default</tspan>
<tspan x="10" y="2522"></tspan>
<tspan x="10" y="2538">testCase testCase_buildApidoc_default failed</tspan>
<tspan x="10" y="2554">callback in testCase testCase_buildApidoc_default called multiple times</tspan>
<tspan x="10" y="2570">Error: callback in testCase testCase_buildApidoc_default called multiple times</tspan>
<tspan x="10" y="2586">    at Timeout.onError [as _onTimeout] (/home/travis/build/npmdoc/node-npmdoc-shader-school/node\</tspan>
<tspan x="10" y="2602">_modules/utility2/lib.utility2.js:5387:42)</tspan>
<tspan x="10" y="2618">    at ontimeout (timers.js:380:14)</tspan>
<tspan x="10" y="2634">    at tryOnTimeout (timers.js:244:5)</tspan>
<tspan x="10" y="2650">    at Timer.listOnTimeout (timers.js:214:5)</tspan>
<tspan x="10" y="2666">----------------------------------|-----------|-----------|-----------|-----------|</tspan>
<tspan x="10" y="2682">File                              |   % Stmts |% Branches |   % Funcs |   % Lines |</tspan>
<tspan x="10" y="2698">----------------------------------|-----------|-----------|-----------|-----------|</tspan>
<tspan x="10" y="2714">   node-npmdoc-shader-school/     |       100 |       100 |       100 |       100 |</tspan>
<tspan x="10" y="2730">      example.js                  |       100 |       100 |       100 |       100 |</tspan>
<tspan x="10" y="2746">      lib.npmdoc_shader_school.js |       100 |       100 |       100 |       100 |</tspan>
<tspan x="10" y="2762">      test.js                     |       100 |       100 |       100 |       100 |</tspan>
<tspan x="10" y="2778">----------------------------------|-----------|-----------|-----------|-----------|</tspan>
<tspan x="10" y="2794">All files                         |       100 |       100 |       100 |       100 |</tspan>
<tspan x="10" y="2810">----------------------------------|-----------|-----------|-----------|-----------|</tspan>
<tspan x="10" y="2826"></tspan>
<tspan x="10" y="2842">created coverage file:///home/travis/build/npmdoc/node-npmdoc-shader-school/node_modules/shader-\</tspan>
<tspan x="10" y="2858">school/answers/tmp/build/coverage.html/index.html</tspan>
<tspan x="10" y="2874">[?25h</tspan>
<tspan x="10" y="2890"></tspan>
<tspan x="10" y="2906">merging file:///home/travis/build/npmdoc/node-npmdoc-shader-school/tmp/build/test-report.json to\</tspan>
<tspan x="10" y="2922"> test-report</tspan>
<tspan x="10" y="2938">&gt; server listening on http-port 53711</tspan>
<tspan x="10" y="2954"></tspan>
<tspan x="10" y="2970"> ==============================</tspan>
<tspan x="10" y="2986"> = ~~~~~ shader-school ~~~~~~ =</tspan>
<tspan x="10" y="3002"> ==============================</tspan>
<tspan x="10" y="3018"></tspan>
<tspan x="10" y="3034">created apidoc file:///home/travis/build/npmdoc/node-npmdoc-shader-school/tmp/build/apidoc.html</tspan>
<tspan x="10" y="3050"></tspan>
<tspan x="10" y="3066"></tspan>
<tspan x="10" y="3082">browserTest - created electron entry-page /home/travis/build/npmdoc/node-npmdoc-shader-school/tm\</tspan>
<tspan x="10" y="3098">p/electron.15b484896390.6d41299b75cf6.html</tspan>
<tspan x="10" y="3114"></tspan>
<tspan x="10" y="3130">[node test-case 1 of 6 passed] - testCase_buildLib_default</tspan>
<tspan x="10" y="3146">[node test-case 2 of 6 passed] - testCase_buildReadme_default</tspan>
<tspan x="10" y="3162">[node test-case 3 of 6 passed] - testCase_buildTest_default</tspan>
<tspan x="10" y="3178"></tspan>
<tspan x="10" y="3194">browserTest - created electron entry-page /home/travis/build/npmdoc/node-npmdoc-shader-school/tm\</tspan>
<tspan x="10" y="3210">p/electron.15b4848967e0.e53c1b8c433f5.html</tspan>
<tspan x="10" y="3226"></tspan>
<tspan x="10" y="3242">[?] We're about to populate this directory with some code for you to use for</tspan>
<tspan x="10" y="3258">    your answers. If they've already been created then don't worry, they won't</tspan>
<tspan x="10" y="3274">    be replaced. Continue? (Y/n) Xlib:  extension "RANDR" missing on display ":99.0".</tspan>
<tspan x="10" y="3290">Xlib:  extension "RANDR" missing on display ":99.0".</tspan>
<tspan x="10" y="3306">merging file:///home/travis/build/npmdoc/node-npmdoc-shader-school/tmp/build/test-report.json to\</tspan>
<tspan x="10" y="3322"> test-report</tspan>
<tspan x="10" y="3338">Xlib:  extension "RANDR" missing on display ":99.0".</tspan>
<tspan x="10" y="3354">[5688:0407/115929:WARNING:audio_manager.cc(314)] Multiple instances of AudioManager detected</tspan>
<tspan x="10" y="3370">[5688:0407/115929:WARNING:audio_manager.cc(275)] Multiple instances of AudioManager detected</tspan>
<tspan x="10" y="3386">[5709:0407/115929:ERROR:sandbox_linux.cc(343)] InitializeSandbox() called with multiple threads \</tspan>
<tspan x="10" y="3402">in process gpu-process. </tspan>
<tspan x="10" y="3418">[5688:0407/115929:ERROR:browser_gpu_channel_host_factory.cc(131)] Failed to create channel.</tspan>
<tspan x="10" y="3434">merging file:///home/travis/build/npmdoc/node-npmdoc-shader-school/tmp/build/test-report.json to\</tspan>
<tspan x="10" y="3450"> test-report</tspan>
<tspan x="10" y="3466">Xlib:  extension "RANDR" missing on display ":99.0".</tspan>
<tspan x="10" y="3482">[5692:0407/115929:WARNING:audio_manager.cc(314)] Multiple instances of AudioManager detected</tspan>
<tspan x="10" y="3498">[5692:0407/115929:WARNING:audio_manager.cc(275)] Multiple instances of AudioManager detected</tspan>
<tspan x="10" y="3514">[5740:0407/115929:ERROR:sandbox_linux.cc(343)] InitializeSandbox() called with multiple threads \</tspan>
<tspan x="10" y="3530">in process gpu-process. </tspan>
<tspan x="10" y="3546">[5692:0407/115929:ERROR:browser_gpu_channel_host_factory.cc(131)] Failed to create channel.</tspan>
<tspan x="10" y="3562"></tspan>
<tspan x="10" y="3578">browserTest - opened url /home/travis/build/npmdoc/node-npmdoc-shader-school/tmp/build/apidoc.ht\</tspan>
<tspan x="10" y="3594">ml</tspan>
<tspan x="10" y="3610"></tspan>
<tspan x="10" y="3626"></tspan>
<tspan x="10" y="3642">browserTest - opened url http://127.0.0.1:53711?modeTest=1</tspan>
<tspan x="10" y="3658"></tspan>
<tspan x="10" y="3674">&gt; server listening on http-port 56712</tspan>
<tspan x="10" y="3690">[node test-case 4 of 6 passed] - testCase_buildApp_default</tspan>
<tspan x="10" y="3706"></tspan>
<tspan x="10" y="3722">browserTest - created screenCapture file:///home/travis/build/npmdoc/node-npmdoc-shader-school/t\</tspan>
<tspan x="10" y="3738">mp/build/screenCapture.npmTest.browser._2Fhome_2Ftravis_2Fbuild_2Fnpmdoc_2Fnode-npmdoc-shader-sc\</tspan>
<tspan x="10" y="3754">hool_2Ftmp_2Fbuild_2Fapidoc.html.png</tspan>
<tspan x="10" y="3770"></tspan>
<tspan x="10" y="3786">browserTest - created screenCapture file:///home/travis/build/npmdoc/node-npmdoc-shader-school/t\</tspan>
<tspan x="10" y="3802">mp/build/screenCapture.npmTest.browser._2Fhome_2Ftravis_2Fbuild_2Fnpmdoc_2Fnode-npmdoc-shader-sc\</tspan>
<tspan x="10" y="3818">hool_2Ftmp_2Fbuild_2Fapidoc.html.html</tspan>
<tspan x="10" y="3834"></tspan>
<tspan x="10" y="3850">browserTest - exit-code 0 - /home/travis/build/npmdoc/node-npmdoc-shader-school/tmp/build/apidoc\</tspan>
<tspan x="10" y="3866">.html</tspan>
<tspan x="10" y="3882"></tspan>
<tspan x="10" y="3898">[node test-case 5 of 6 passed] - testCase_buildApidoc_default</tspan>
<tspan x="10" y="3914"></tspan>
<tspan x="10" y="3930">browserTest - created screenCapture file:///home/travis/build/npmdoc/node-npmdoc-shader-school/t\</tspan>
<tspan x="10" y="3946">mp/build/screenCapture.npmTest.browser..png</tspan>
<tspan x="10" y="3962"></tspan>
<tspan x="10" y="3978">browserTest - created screenCapture file:///home/travis/build/npmdoc/node-npmdoc-shader-school/t\</tspan>
<tspan x="10" y="3994">mp/build/screenCapture.npmTest.browser..html</tspan>
<tspan x="10" y="4010"></tspan>
<tspan x="10" y="4026">browserTest - exit-code 0 - http://127.0.0.1:53711?modeTest=1</tspan>
<tspan x="10" y="4042"></tspan>
<tspan x="10" y="4058"></tspan>
<tspan x="10" y="4074">browserTest - merged coverage from /home/travis/build/npmdoc/node-npmdoc-shader-school/tmp/cover\</tspan>
<tspan x="10" y="4090">age.npmTest.browser.%2F.json</tspan>
<tspan x="10" y="4106"></tspan>
<tspan x="10" y="4122"></tspan>
<tspan x="10" y="4138">browserTest - merging test-report from /home/travis/build/npmdoc/node-npmdoc-shader-school/tmp/t\</tspan>
<tspan x="10" y="4154">est-report.npmTest.browser.%2F.json</tspan>
<tspan x="10" y="4170"></tspan>
<tspan x="10" y="4186">[node test-case 6 of 6 passed] - testCase_webpage_default</tspan>
<tspan x="10" y="4202">[?25h</tspan>
<tspan x="10" y="4218"></tspan>
<tspan x="10" y="4234">merging file:///home/travis/build/npmdoc/node-npmdoc-shader-school/tmp/build/test-report.json to\</tspan>
<tspan x="10" y="4250"> test-report</tspan>
<tspan x="10" y="4266"></tspan>
<tspan x="10" y="4282">-------------------------------------------------------</tspan>
<tspan x="10" y="4298">| test-report - buildNpmdoc - node - linux v6.10.2 - 2017-04-07T11:58:33.327Z</tspan>
<tspan x="10" y="4314">|   70598 ms            0 failed        6 passed      |</tspan>
<tspan x="10" y="4330">-------------------------------------------------------</tspan>
<tspan x="10" y="4346"></tspan>
<tspan x="10" y="4362">created test-report file:///home/travis/build/npmdoc/node-npmdoc-shader-school/tmp/build/test-re\</tspan>
<tspan x="10" y="4378">port.html</tspan>
<tspan x="10" y="4394"></tspan>
<tspan x="10" y="4410"></tspan>
<tspan x="10" y="4426">npmTest - 0 failed tests</tspan>
<tspan x="10" y="4442"></tspan>
<tspan x="10" y="4458"></tspan>
<tspan x="10" y="4474">[MODE_BUILD=npmTest] - 2017-04-07T11:59:47Z - EXIT_CODE - 2</tspan>
<tspan x="10" y="4490"></tspan>
<tspan x="10" y="4506">npm ERR! Test failed.  See above for more details.</tspan>
</text>
</svg>
